# xmcd
#
# Track frame offsets: 
#        163
#        30616
#        49169
#        67844
#        81092
#        99542
#        120130
#        141696
#        162825
#        188650
#        210434
#        228492
#        250010
#        266052
#        284493
#
# Disc length: 4112 seconds
#
# Revision: 3
# Processed by: cddbd v1.5.2PL0 Copyright (c) Steve Scherf et al.
# Submitted via: ExactAudioCopy v0.99pb5
#
DISCID=cd100e0f
DTITLE=Various Artist - Capitol Disco CD2
DYEAR=2007
DGENRE=Disco
TTITLE0=Maze feat. Frankie Beverly - Twilight
TTITLE1=Minnie Ripperton - Baby, This Love I Have
TTITLE2=Barrett Strong - Man Up In The Sky
TTITLE3=Tavares - Positive Forces
TTITLE4=Brown Sugar - Dont Tie Me Down
TTITLE5=Ashford and Simpson - Street Coner 
TTITLE6=Mystic Merlin - Sixty Thrills A Minute
TTITLE7=Sun - Conscience
TTITLE8=Troiano - We All Need Love
TTITLE9=Rance Allen Group - Peace Of Mind
TTITLE10=Natalie Cole - Annie Mae
TTITLE11=Donna Washington - 'Scuse Me While I Fall In Love
TTITLE12=Charles Jackson - Ooh Child
TTITLE13=Gene Dunlap - Party In Me
TTITLE14=Desmond Child - Our Love Is Insane
EXTD=
EXTT0=
EXTT1=
EXTT2=
EXTT3=
EXTT4=
EXTT5=
EXTT6=
EXTT7=
EXTT8=
EXTT9=
EXTT10=
EXTT11=
EXTT12=
EXTT13=
EXTT14=
PLAYORDER=
